<mxfile host="app.diagrams.net" modified="2023-11-05T06:09:08.028Z" agent="Mozilla/5.0 (Windows NT 10.0; Win64; x64) AppleWebKit/537.36 (KHTML, like Gecko) Chrome/117.0.0.0 Safari/537.36" etag="8-1NRAWDboNzPJvrY3DI" version="22.0.8" type="github">
  <diagram id="R2lEEEUBdFMjLlhIrx00" name="Page-1">
    <mxGraphModel dx="989" dy="523" grid="1" gridSize="10" guides="1" tooltips="1" connect="1" arrows="1" fold="1" page="1" pageScale="1" pageWidth="850" pageHeight="1100" math="0" shadow="0" extFonts="Permanent Marker^https://fonts.googleapis.com/css?family=Permanent+Marker">
      <root>
        <mxCell id="0" />
        <mxCell id="1" parent="0" />
        <mxCell id="6-vCffH0rU1hF1be56Wz-1" value="线上自习室" style="whiteSpace=wrap;html=1;align=center;" vertex="1" parent="1">
          <mxGeometry x="730" y="190" width="70" height="30" as="geometry" />
        </mxCell>
        <mxCell id="6-vCffH0rU1hF1be56Wz-2" value="用户" style="whiteSpace=wrap;html=1;align=center;" vertex="1" parent="1">
          <mxGeometry x="390" y="170" width="70" height="30" as="geometry" />
        </mxCell>
        <mxCell id="6-vCffH0rU1hF1be56Wz-4" value="商家" style="whiteSpace=wrap;html=1;align=center;" vertex="1" parent="1">
          <mxGeometry x="390" y="330" width="70" height="30" as="geometry" />
        </mxCell>
        <mxCell id="6-vCffH0rU1hF1be56Wz-5" value="商品" style="whiteSpace=wrap;html=1;align=center;" vertex="1" parent="1">
          <mxGeometry x="150" y="250" width="70" height="30" as="geometry" />
        </mxCell>
        <mxCell id="6-vCffH0rU1hF1be56Wz-6" value="打卡" style="shape=rhombus;perimeter=rhombusPerimeter;whiteSpace=wrap;html=1;align=center;" vertex="1" parent="1">
          <mxGeometry x="560" y="400" width="70" height="30" as="geometry" />
        </mxCell>
        <mxCell id="6-vCffH0rU1hF1be56Wz-7" value="线下自习室" style="whiteSpace=wrap;html=1;align=center;" vertex="1" parent="1">
          <mxGeometry x="730" y="280" width="70" height="30" as="geometry" />
        </mxCell>
        <mxCell id="6-vCffH0rU1hF1be56Wz-8" value="自习室" style="whiteSpace=wrap;html=1;align=center;" vertex="1" parent="1">
          <mxGeometry x="560" y="240" width="70" height="30" as="geometry" />
        </mxCell>
        <mxCell id="6-vCffH0rU1hF1be56Wz-13" value="" style="endArrow=none;html=1;rounded=0;entryX=0;entryY=0.5;entryDx=0;entryDy=0;startArrow=halfCircle;startFill=0;sourcePerimeterSpacing=0;strokeWidth=1;" edge="1" parent="1" target="6-vCffH0rU1hF1be56Wz-1">
          <mxGeometry relative="1" as="geometry">
            <mxPoint x="700" y="240" as="sourcePoint" />
            <mxPoint x="740" y="215" as="targetPoint" />
            <Array as="points" />
          </mxGeometry>
        </mxCell>
        <mxCell id="6-vCffH0rU1hF1be56Wz-16" value="" style="endArrow=none;html=1;rounded=0;entryX=0;entryY=0.5;entryDx=0;entryDy=0;startArrow=halfCircle;startFill=0;sourcePerimeterSpacing=0;strokeWidth=1;" edge="1" parent="1" target="6-vCffH0rU1hF1be56Wz-7">
          <mxGeometry relative="1" as="geometry">
            <mxPoint x="700" y="270" as="sourcePoint" />
            <mxPoint x="730" y="275" as="targetPoint" />
          </mxGeometry>
        </mxCell>
        <mxCell id="6-vCffH0rU1hF1be56Wz-17" value="" style="endArrow=none;html=1;rounded=0;exitX=1;exitY=0.5;exitDx=0;exitDy=0;endFill=0;" edge="1" parent="1" source="6-vCffH0rU1hF1be56Wz-8">
          <mxGeometry relative="1" as="geometry">
            <mxPoint x="630" y="260" as="sourcePoint" />
            <mxPoint x="670" y="255" as="targetPoint" />
          </mxGeometry>
        </mxCell>
        <mxCell id="6-vCffH0rU1hF1be56Wz-18" value="" style="endArrow=none;html=1;rounded=0;exitX=1;exitY=0.5;exitDx=0;exitDy=0;entryX=0;entryY=0.5;entryDx=0;entryDy=0;" edge="1" parent="1" source="6-vCffH0rU1hF1be56Wz-19" target="6-vCffH0rU1hF1be56Wz-1">
          <mxGeometry relative="1" as="geometry">
            <mxPoint x="682.4956469603405" y="252.41569574981816" as="sourcePoint" />
            <mxPoint x="710" y="230" as="targetPoint" />
          </mxGeometry>
        </mxCell>
        <mxCell id="6-vCffH0rU1hF1be56Wz-20" value="" style="endArrow=none;html=1;rounded=0;" edge="1" parent="1" target="6-vCffH0rU1hF1be56Wz-19">
          <mxGeometry relative="1" as="geometry">
            <mxPoint x="670" y="260" as="sourcePoint" />
            <mxPoint x="710" y="230" as="targetPoint" />
          </mxGeometry>
        </mxCell>
        <mxCell id="6-vCffH0rU1hF1be56Wz-19" value="d" style="ellipse;whiteSpace=wrap;html=1;aspect=fixed;" vertex="1" parent="1">
          <mxGeometry x="670" y="250" width="12.5" height="12.5" as="geometry" />
        </mxCell>
        <mxCell id="6-vCffH0rU1hF1be56Wz-21" value="" style="endArrow=none;html=1;rounded=0;exitX=1;exitY=0.5;exitDx=0;exitDy=0;entryX=0;entryY=0.5;entryDx=0;entryDy=0;" edge="1" parent="1" source="6-vCffH0rU1hF1be56Wz-19" target="6-vCffH0rU1hF1be56Wz-7">
          <mxGeometry relative="1" as="geometry">
            <mxPoint x="693" y="266" as="sourcePoint" />
            <mxPoint x="740" y="225" as="targetPoint" />
          </mxGeometry>
        </mxCell>
      </root>
    </mxGraphModel>
  </diagram>
</mxfile>
